<svg xmlns="http://www.w3.org/2000/svg" width="1600" height="900" viewBox="0 0 1600 900">
  <defs>
    <linearGradient id="sky" x1="0" y1="0" x2="0" y2="1">
      <stop offset="0" stop-color="#0B0F19"/>
      <stop offset="0.55" stop-color="#070A12"/>
      <stop offset="1" stop-color="#05070D"/>
    </linearGradient>

    <radialGradient id="aurora" cx="75%" cy="42%" r="70%">
      <stop offset="0" stop-color="#22d3ee" stop-opacity="0.18"/>
      <stop offset="0.35" stop-color="#a855f7" stop-opacity="0.12"/>
      <stop offset="1" stop-color="#000000" stop-opacity="0"/>
    </radialGradient>

    <linearGradient id="sunset" x1="0" y1="0" x2="1" y2="0">
      <stop offset="0" stop-color="#22d3ee" stop-opacity="0.00"/>
      <stop offset="0.55" stop-color="#22d3ee" stop-opacity="0.05"/>
      <stop offset="0.75" stop-color="#a855f7" stop-opacity="0.08"/>
      <stop offset="1" stop-color="#ffd08a" stop-opacity="0.10"/>
    </linearGradient>

    <!-- Warm horizon glow (sunrise) -->
    <radialGradient id="horizon" cx="88%" cy="74%" r="55%">
      <stop offset="0" stop-color="#ffd08a" stop-opacity="0.22"/>
      <stop offset="0.22" stop-color="#ff9f6e" stop-opacity="0.14"/>
      <stop offset="0.45" stop-color="#a855f7" stop-opacity="0.08"/>
      <stop offset="1" stop-color="#000000" stop-opacity="0"/>
    </radialGradient>

    <!-- Cloud texture: subtle noise to avoid flat ellipses -->
    <filter id="cloudNoise" x="-10%" y="-10%" width="120%" height="120%">
      <feTurbulence type="fractalNoise" baseFrequency="0.014" numOctaves="3" seed="7" result="n"/>
      <feColorMatrix in="n" type="matrix" values="
        0 0 0 0 0
        0 0 0 0 0
        0 0 0 0 0
        0 0 0 0.45 0" result="na"/>
      <feGaussianBlur in="na" stdDeviation="10" result="nb"/>
      <feComposite in="nb" in2="SourceGraphic" operator="in"/>
    </filter>

    <filter id="blur" x="-20%" y="-20%" width="140%" height="140%">
      <feGaussianBlur stdDeviation="18"/>
    </filter>

    <filter id="softGlow" x="-30%" y="-30%" width="160%" height="160%">
      <feGaussianBlur stdDeviation="6" result="b"/>
      <feColorMatrix in="b" type="matrix" values="1 0 0 0 0  0 1 0 0 0  0 0 1 0 0  0 0 0 0.9 0"/>
      <feMerge>
        <feMergeNode/>
        <feMergeNode in="SourceGraphic"/>
      </feMerge>
    </filter>

    <radialGradient id="vig" cx="50%" cy="50%" r="72%">
      <stop offset="0" stop-color="#000000" stop-opacity="0"/>
      <stop offset="1" stop-color="#000000" stop-opacity="0.7"/>
    </radialGradient>
  </defs>

  <rect width="1600" height="900" fill="url(#sky)"/>
  <rect width="1600" height="900" fill="url(#aurora)"/>
  <rect width="1600" height="900" fill="url(#sunset)"/>
  <rect width="1600" height="900" fill="url(#horizon)"/>

  <!-- Cloud layers (more "above the clouds" feel) -->
  <g opacity="0.45" filter="url(#blur)">
    <ellipse cx="380" cy="760" rx="620" ry="250" fill="#0f172a"/>
    <ellipse cx="820" cy="820" rx="820" ry="290" fill="#0b1223"/>
    <ellipse cx="1320" cy="790" rx="720" ry="270" fill="#0b1223"/>
    <ellipse cx="1160" cy="650" rx="620" ry="220" fill="#0f172a"/>
    <ellipse cx="860" cy="650" rx="620" ry="230" fill="#0b1223"/>
  </g>

  <!-- Cloud highlights (sunrise rim light) -->
  <g opacity="0.34" filter="url(#blur)">
    <ellipse cx="1120" cy="740" rx="540" ry="170" fill="#ffd08a"/>
    <ellipse cx="1360" cy="720" rx="560" ry="180" fill="#ff9f6e"/>
    <ellipse cx="920" cy="790" rx="600" ry="170" fill="#a855f7"/>
  </g>

  <!-- Cloud texture overlay -->
  <g opacity="0.22" filter="url(#cloudNoise)">
    <rect x="0" y="460" width="1600" height="440" fill="#ffffff"/>
  </g>

  <!-- Subtle curved radar arcs -->
  <g fill="none" stroke-linecap="round" stroke-linejoin="round" opacity="0.85" filter="url(#softGlow)">
    <path d="M-120 640 C 260 500, 600 500, 980 650" stroke="#22d3ee" stroke-opacity="0.10" stroke-width="9"/>
    <path d="M200 760 C 540 620, 880 610, 1240 750" stroke="#a855f7" stroke-opacity="0.09" stroke-width="8"/>
    <path d="M740 560 C 980 430, 1220 420, 1700 590" stroke="#22d3ee" stroke-opacity="0.09" stroke-width="9"/>
  </g>

  <!-- Large airplane silhouette (right side, above clouds) -->
  <g transform="translate(915 215) rotate(-12)" filter="url(#softGlow)">
    <!-- body glow -->
    <path
      d="M640 260v-34L350 56V18c0-18-15-33-33-33s-33 15-33 33v38L-10 226v34l294-70v136l-62 41v64l95-27 95 27v-64l-62-41V190l290 70Z"
      fill="#22d3ee"
      fill-opacity="0.07"
    />
    <!-- body highlight -->
    <path
      d="M640 260v-34L350 56V18c0-18-15-33-33-33s-33 15-33 33v38L-10 226v34l294-70v136l-62 41v64l95-27 95 27v-64l-62-41V190l290 70Z"
      fill="#ffffff"
      fill-opacity="0.18"
    />
    <!-- cockpit / nose light -->
    <ellipse cx="558" cy="176" rx="22" ry="12" fill="#ffffff" fill-opacity="0.10"/>
  </g>

  <!-- Mist between plane and clouds -->
  <g opacity="0.20" filter="url(#blur)">
    <ellipse cx="1200" cy="620" rx="560" ry="160" fill="#ffffff" fill-opacity="0.10"/>
    <ellipse cx="980" cy="650" rx="640" ry="180" fill="#22d3ee" fill-opacity="0.05"/>
  </g>

  <!-- Top sparkle stars -->
  <g opacity="0.28">
    <circle cx="240" cy="120" r="1.2" fill="#ffffff"/>
    <circle cx="380" cy="90" r="1.0" fill="#ffffff"/>
    <circle cx="520" cy="130" r="1.1" fill="#ffffff"/>
    <circle cx="1180" cy="110" r="1.1" fill="#ffffff"/>
    <circle cx="1320" cy="160" r="1.0" fill="#ffffff"/>
    <circle cx="1460" cy="120" r="1.2" fill="#ffffff"/>
  </g>

  <rect width="1600" height="900" fill="url(#vig)"/>
</svg>
